<svg width="75" height="75" viewBox="0 0 19.844 19.844" xmlns:xlink="http://www.w3.org/1999/xlink" xmlns="http://www.w3.org/2000/svg"><defs><linearGradient id="a"><stop offset="0" stop-color="#166ac4"/><stop offset="1" stop-color="#00aeef"/></linearGradient><linearGradient xlink:href="#a" id="b" x1="366.259" y1="280.636" x2="1217.151" y2="1666.983" gradientUnits="userSpaceOnUse" gradientTransform="translate(-28.974 -33.617) scale(.25271)"/></defs><path style="mix-blend-mode:normal;-inkscape-stroke:none" d="M85.184 32.16c-13.955.002-25.268 11.314-25.27 25.27v414.307a25.275 25.275 0 0 0 37.906 21.886l85.389-49.3V339.74c0-13.751 11.48-25.228 25.23-25.228h8.212c10.7-27.887 37.793-47.81 69.335-47.811 31.542 0 58.635 19.924 69.334 47.81h8.213c9.342 0 17.623 5.304 21.98 13.012l71.107-41.053a25.274 25.274 0 0 0 0-43.771L277.22 139.12 97.82 35.544a25.273 25.273 0 0 0-12.636-3.384Z" color="#000" fill="url(#b)" transform="matrix(.04269 0 0 .04269 -1.373 -1.373)"/><path d="M10.835 10.577a2.604 2.604 0 0 0-2.54 2.033h-.77a.52.52 0 0 0-.52.52v6.19c0 .289.232.52.52.52h6.62a.52.52 0 0 0 .521-.52v-6.19a.52.52 0 0 0-.52-.52h-.77a2.604 2.604 0 0 0-2.54-2.033zm0 .65a1.953 1.953 0 0 1 1.868 1.383H8.97a1.953 1.953 0 0 1 1.865-1.382zm.2 2.696c.803 0 1.524.405 1.904 1.044l-.753.436c-.221-.399-.645-.633-1.151-.633-.43 0-.778.133-1.044.405-.26.272-.392.62-.392 1.05 0 .424.133.772.392 1.044.266.272.614.405 1.044.405.506 0 .942-.24 1.15-.627l.754.437c-.38.639-1.095 1.044-1.904 1.044-.664 0-1.215-.222-1.651-.665-.437-.442-.652-.986-.652-1.638 0-.651.215-1.202.652-1.638.436-.443.987-.664 1.65-.664z" fill="#fda21a" paint-order="stroke fill markers"/></svg>